<svg xmlns="http://www.w3.org/2000/svg" xmlns:xlink="http://www.w3.org/1999/xlink" preserveAspectRatio="xMidYMid meet" version="1.0" viewBox="-0.0 -0.0 410.2 175.0" zoomAndPan="magnify" style="fill: rgb(0, 0, 0);" original_string_length="4278"><g id="__id277_shjg58pa9"><path d="M275.12,131.21c0.01-0.04,0.02-0.09,0.03-0.13c0.02,0.01,0.03,0.03,0.05,0.05L275.12,131.21z M270.12,82.44 c-0.26-0.28-0.54-0.55-0.82-0.8c5.01-7.48,10-14.97,15.04-22.42c0.73-1.07,1.64-2.71,2.6-2.82c10.4-1.11,14.86-9.03,19.74-18.19 c4.37,6.43,8.53,11.69,11.72,17.49c3.22,5.87,7.79,9.11,14.14,10.5c2.94,0.64,5.9,1.29,7.67,4.44 c14.11,25.19,33.52,44.45,63.02,53.79c-7.63,1.94-36.19-8.26-43.21-14.58c-1.91,5.86-3.77,11.54-5.63,17.22 c-0.3-0.06-0.61-0.12-0.91-0.17c-1-7.09-1.94-14.19-3.01-21.26c-0.37-2.43,0.29-5.8-3.65-5.88c-3.31-0.07-7-1.58-9.39,2.55 c-1.39,2.4-3.17,4.55-3.06,8.62c-6.64-9.1-1.62-17.65-2.11-26.72c-8.95-1.66-17.17-8.51-28.02-4.01c1.78-2.56,3.54-5.13,5.33-7.68 c6.32-8.99,6.32-8.99-0.62-18.9c-7.77,5.45-18.24,7.76-20.31,19.44c-0.63,3.56-4.09,4.12-6.39,5.17c-2.49-0.47,0.13-3.43-2.92-3.34 C275.7,76.31,273.94,80.69,270.12,82.44z M280.71,75.25c1.89-0.68,3-1.42,1.42-3.51C281.51,72.78,279.87,72.95,280.71,75.25z M32.98,137.11c-0.24-0.29-0.5-0.55-0.77-0.81c8.76-8.93,17.53-17.84,26.26-26.79c3.13-3.21,7.43-2.5,11.17-3.02 c4.04-0.57,6.83-2.2,9.39-5.21c4.82-5.65,9.93-11.06,15.11-16.79c7.84,6.27,13.88,13.96,22.43,19.84c4.37-5.21,8.9-10.2,12.95-15.56 c4.53-6,9.99-10.42,17.33-12.33c3.61-0.94,5.97-3.12,7.79-6.44c3.8-6.93,8.17-13.55,12-20.47c3.04-5.49,6-10.82,14.32-11.19 c-4.73-9.05,1.91-13.22,6.48-18.24c6.02-6.62,12.11-13.16,18.52-20.11c3.63,7.38,7.2,13.94,10.13,20.79 c3.7,8.65,9.35,15.29,17.81,19.44c9.24,4.52,15.51,11.51,19.71,21.02c4.14,9.38,9.51,18.22,14.27,27.32 c0.96,1.83,2.21,3.29,4.03,4.2c11.95,5.95,20.32,15.74,28.4,25.97c7.75,9.8,15.84,19.33,23.84,28.96c-0.57,0-1.15,0.01-1.72,0.01 c-0.73,0-1.45-0.02-2.17-0.02c-3.81-3.08-7.68-6.11-11.11-9.58c-6.3-6.38-13.09-10.24-22.82-6.18c-0.56,2.16-1.28,4.76,0.15,7.95 c0.75,1.66,0.88,3.63,0.5,5.86c-0.87-0.1-1.74-0.2-2.63-0.31c-3.82-8.73-3.08-18.91-10.03-26.35c-1.05,4.54,1.86,8.13,0.83,12 c-6.46-5.46-11.92-12-19.38-16.46c-3.84-2.3-7.29-5.1-11.73-6.32c-15.92-4.38-29.25-13.93-43.37-21.89 c-3.19-1.8-4.67-5.27-6.25-8.32c-2.53-4.89-6.07-6.96-11.57-6.48c-3.37,0.3-6.82-0.23-11.66-0.45c8.43-8.92,15.53-16.96,23.23-24.36 c4.2-4.03,10.55-1.69,15.87-3.35c2.2-9.15-1.59-15.98-8.54-22.05c-4.74,7.03-12.74,11.43-15.33,20.12 c-0.11,0.36-0.54,0.76-0.92,0.89c-13.34,4.67-16.81,17.81-23.61,27.95c-4.77,7.11-8.33,15.05-20.41,16.12 c22.68,12.54,44.89,22.85,57.16,43.9c-3.06-0.59-6.13-1.17-9.2-1.73c-9.73-7.14-20.31-12.92-31.76-16.97 c-1.32-0.47-3.02-0.05-4.5,0.22c-2.16,0.39-4.24,1.22-6.4,1.53c-7.92,1.12-15.4,2.94-21.19,7.61l-9.2-0.2 c-3.4,0.01-6.76,0.07-9.94,0.19c-1.29,0.04-2.58,0.1-3.86,0.16c3.57-2.98,6.96-6.28,9.31-10.91c-4.89-3.92-9.92-7.95-15.47-12.4 c-2.24,6.57-0.94,12.28,2.25,19.29c-9.3-2.9-14.43,1.12-19.04,6.13c-3.66,0.52-7.21,1.11-10.64,1.79c-0.23-0.83-0.46-1.67-0.7-2.57 c-3.07,1.65-5.95,3.2-8.87,4.77c-1.54,0.41-3.05,0.83-4.54,1.27c-0.25-1.88-0.47-3.61-0.79-6.02 C46.78,127.58,39.88,132.34,32.98,137.11z M226.94,67.32c14.45,18.51,31.62,32.88,54.22,40.87c0.26-2.52-0.78-3.1-1.7-3.56 c-11.34-5.61-18.32-15.28-24.67-25.74C249.38,69.98,237.99,65.47,226.94,67.32z M401.11,136.9c-3.22,3.07-6.65,5.87-10.26,8.35 c-7.25,4.95-15.12,8.74-23.34,11.39c-16.46,5.3-34,6.31-51.23,4.92c-8.63-0.68-17.23-2.02-25.7-3.82 c-4.23-0.91-8.43-1.98-12.51-3.16l-12.71-3.99l-6.53-2.05c-2.18-0.69-4.38-1.24-6.57-1.87c-4.39-1.21-8.77-2.47-13.18-3.64 c-4.42-1.12-8.86-2.16-13.29-3.24c-4.44-1.07-8.92-1.93-13.38-2.91c-35.77-7.27-72.63-10.72-109.29-7.96 c-18.3,1.48-36.53,4.49-54.13,9.73c-8.78,2.67-17.42,5.78-25.7,9.7c-4.13,1.97-8.19,4.07-12.13,6.37 c-3.89,2.37-7.74,4.85-11.17,7.82c3.99-2.13,8.1-3.92,12.3-5.48c4.18-1.59,8.41-3,12.69-4.25c8.55-2.48,17.22-4.43,25.95-5.93 c17.46-2.99,35.12-4.3,52.77-4.45c35.33-0.18,70.55,4.26,105.29,11.26c17.39,3.43,34.66,7.73,51.79,12.42l13.2,3.59 c4.61,1.16,9.2,2.03,13.82,2.79c9.22,1.52,18.54,2.31,27.89,2.42c9.34,0.07,18.73-0.58,27.97-2.26c9.23-1.68,18.34-4.33,26.88-8.27 c8.53-3.94,16.5-9.1,23.24-15.49c3.37-3.19,6.46-6.63,9.22-10.29c2.72-3.69,5.17-7.54,7.2-11.59 C407.36,130.52,404.37,133.87,401.11,136.9z" style="fill: rgb(255, 255, 255);"/></g></svg>